<svg width="249" height="249" viewBox="0 0 249 249" fill="none" xmlns="http://www.w3.org/2000/svg">
<rect width="249" height="249" rx="124.5" fill="#F2FBFF"/>
<rect x="32.9998" y="32.9998" width="183" height="183" rx="91.5001" fill="#E6F7FF"/>
<g opacity="0.2" clip-path="url(#clip0_1333_47)">
<path d="M108.608 105.105C104.582 106.184 102.16 109.992 102.499 114.003C98.8934 116.014 96.2124 119.429 95.8106 123.81L95.7467 123.827L94.6716 137.198C94.2522 139.34 94.2784 141.61 94.8799 143.855C96.9927 151.74 105.147 156.448 113.032 154.335C120.134 152.432 124.656 145.629 123.936 138.535C125.34 139.332 127.036 139.623 128.698 139.177C130.36 138.732 131.683 137.633 132.5 136.241C135.424 142.744 142.742 146.374 149.844 144.471C157.729 142.358 162.437 134.204 160.324 126.319C159.791 124.33 158.872 122.53 157.667 121.004L149.508 109.216L149.427 109.169L149.41 109.105C146.944 105.879 142.958 104.232 138.8 104.276C137.087 100.634 133.086 98.5464 129.06 99.6253C125.265 100.642 122.886 104.097 122.907 107.85L118.049 109.151C116.191 105.89 112.403 104.088 108.608 105.105ZM109.704 109.195C112.141 108.543 114.238 109.753 114.891 112.19L115.439 114.235L127.709 110.947L127.161 108.902C126.509 106.465 127.719 104.368 130.156 103.716C132.592 103.063 134.689 104.273 135.342 106.71L135.839 108.563L137.743 108.258C140.865 107.764 144.052 109.179 145.969 111.603C145.995 111.638 146.04 111.678 146.067 111.713L148.765 115.648C146.644 115.241 144.393 115.244 142.172 115.839C136.189 117.443 132.071 122.527 131.34 128.332C129.79 126.923 127.559 126.331 125.41 126.907C123.261 127.483 121.625 129.111 120.987 131.106C117.452 126.445 111.343 124.1 105.36 125.703C103.171 126.29 101.225 127.368 99.6012 128.753L100.022 124.188L100.005 124.124C100.347 120.642 102.353 118.092 105.405 116.923L107.207 116.235L106.71 114.382C106.057 111.945 107.268 109.848 109.704 109.195ZM106.456 129.794C112.128 128.274 117.902 131.607 119.421 137.279C120.941 142.951 117.608 148.725 111.936 150.245C106.264 151.765 100.49 148.431 98.9701 142.759C98.5827 141.313 98.5847 139.883 98.786 138.493C98.7966 138.405 98.7709 138.309 98.7814 138.22C99.4555 134.281 102.326 130.9 106.456 129.794ZM143.268 119.93C148.94 118.41 154.714 121.743 156.234 127.415C157.753 133.087 154.42 138.861 148.748 140.381C143.076 141.901 137.302 138.567 135.782 132.895C134.263 127.223 137.596 121.45 143.268 119.93ZM126.506 130.997C127.656 130.689 128.791 131.344 129.099 132.494C129.407 133.644 128.752 134.779 127.602 135.087C126.452 135.395 125.317 134.74 125.009 133.59C124.701 132.44 125.356 131.305 126.506 130.997Z" fill="#090B33"/>
</g>
<defs>
<clipPath id="clip0_1333_47">
<rect width="67.7526" height="67.7526" fill="white" transform="translate(83.3721 100.907) rotate(-15)"/>
</clipPath>
</defs>
</svg>
